<svg xmlns="http://www.w3.org/2000/svg" viewBox="0 0 318.62 356.28"><defs><style>.cls-1{fill:#ccc;}.cls-2{fill:#f489c1;}.cls-3{fill:#452f27;}.cls-4{fill:#f8b27d;}.cls-5{fill:#c748a1;}.cls-6{fill:#c33c8d;}.cls-7{fill:#ff8001;}.cls-8{fill:none;}.cls-9{fill:#c65447;}.cls-10{fill:#82027e;}.cls-11{fill:#666;}.cls-12{fill:#c7479b;}.cls-13{fill:#e7945b;}.cls-14{fill:#a94899;}.cls-15{fill:#fea621;}.cls-16{fill:#b2443b;}</style></defs><g id="Layer_2" data-name="Layer 2"><g id="Layer_1-2" data-name="Layer 1"><ellipse class="cls-1" cx="157.45" cy="346.12" rx="106.09" ry="10.16"/><path class="cls-2" d="M.68,153.77C5.6,179.54,34.1,179.83,41.4,206.88c8.9,32.92-25.92,59.82-15.7,72.72,9.1,11.47,38.64-7.33,83.11-8.34,34.15-.78,62.47,9.27,81.7,18.38,53.59,18.92,101.63,14.68,119-10,1.77-2.52,12.2-18,8.17-34.43-4.08-16.63-18.93-17.59-32.72-37.78s-14.54-42.13-14.77-49c-1-29.44,13.21-33.94,13.28-59.24.09-35-27-60.76-34.4-67.82-4.31-4.1-43.57-41.43-74-28.66-12,5-20.07,16.68-26.9,26.52-11,15.88-9.33,22.27-15.32,31.15C113.55,88.92,68,64.35,30.17,93,12.25,106.59-3.5,131.85.68,153.77Z"/><path class="cls-3" d="M201.84,110.9a9,9,0,0,1-.78,2,46.57,46.57,0,0,0-2-6.32c-.19-.29-2.84-4.22-7.35-4.64-1.42-.13-2.68.26-5.21,1-4.62,1.43-7.13,2.21-8,4.38-.57,1.37-.24,2.69.36,5.16A25.66,25.66,0,0,0,180.6,117a10.23,10.23,0,0,1-4.09-5.22,11.85,11.85,0,0,1-.11-5.84,12.12,12.12,0,0,1,1.67-5,11.66,11.66,0,0,1,5.11-4.17A15.39,15.39,0,0,1,192,95.46a6.15,6.15,0,0,1,3.08,1.31,5.76,5.76,0,0,1,1.61,2.29,2.71,2.71,0,0,1,1.62.42c.81.56.9,1.48,1.35,2.76.64,1.8,1,1.46,1.62,3.13A9.49,9.49,0,0,1,201.84,110.9Z"/><path class="cls-4" d="M202.52,124.13c-.05.16-.09.29-.14.41a3,3,0,0,1-.17.37c-.23.46-.62,1.07-1.51,2.88-1.28,2.57-1.21,2.74-1.68,3.23-1.49,1.54-3.87,1.49-5.31,1.46a12.62,12.62,0,0,1-6.87-2.34h0a7.78,7.78,0,0,1-.64-.47,12.71,12.71,0,0,1-4.06-5.32c-.93-2.37-.14-2.75-1.1-6-.15-.51-.29-.93-.43-1.29a0,0,0,0,0,0,0,25.66,25.66,0,0,1-1.75-4.44c-.6-2.47-.93-3.79-.36-5.16.9-2.17,3.41-3,8-4.38,2.53-.78,3.79-1.17,5.21-1,4.51.42,7.16,4.35,7.35,4.64a46.57,46.57,0,0,1,2,6.32c0,.12.07.24.1.35a37.44,37.44,0,0,1,1.36,5.74C202.83,121.29,203,122.55,202.52,124.13Z"/><path class="cls-5" d="M247.14,167.48a14.44,14.44,0,0,1-.81,1.72,16.08,16.08,0,0,1-5.76,6.1,15.88,15.88,0,0,1-4.75,1.93l-.71.15a16,16,0,0,1-3.29.26c-.47-1.34-.95-2.7-1.41-4.06q-.87-2.51-1.72-5c.05,3.21.14,6.48.25,9.79l.06,1.55q.25,6.33.62,12.43a91.49,91.49,0,0,1,4.68,9.89,16.94,16.94,0,0,1-2,7.34,17.44,17.44,0,0,1-4.8,5.62c-.27.21-.52.38-.75.53-1.67,1.07-2.17.72-3.52,2a9.48,9.48,0,0,0-2.6,4.26A103.56,103.56,0,0,1,182.45,223l-.93-.16c0-5.32.2-13.44.8-23.41.78-12.88,1.16-19.33,1.25-20.09.53-4.69,1.93-15.45-1.33-24.79-.42-1.22-1.05-2.75-1.8-2.73-1.68,0-2.94,7.88-3.36,13.13-.53,6.64.33,8.72.17,15.83h0c-.24.38-.48.79-.72,1.2a31.09,31.09,0,0,0-3.2,8.29h0c-.34-.21.22-3.28-1.24-7.08h0v0a2.14,2.14,0,0,0-.09-.34,7.12,7.12,0,0,0-.48-1.23,11,11,0,0,0-.57-1,21.5,21.5,0,0,0-1.49-2,11.11,11.11,0,0,0-.87-1l-.2-.2a10.57,10.57,0,0,0-1.14-1l-.14-.1h0a24.78,24.78,0,0,0-2.07-1.58c-.62-.77-1.47-1.86-2.44-3.21h0v0l0,0c-.47-.81-1-1.74-1.54-2.83a16.83,16.83,0,0,0,1.42-2.34c.28-.55.49-1.06.66-1.49.47-2.33,1.14-5.48,2-9.23,1.19-5.45,1.43-6.29,2-7.5a19.48,19.48,0,0,1,7.43-7.82c2-1.14,2.66-1,6.18-2.81a53.55,53.55,0,0,0,4.92-2.9,5.67,5.67,0,0,1,.32-2.81,5.08,5.08,0,0,1,1-1.61,10.8,10.8,0,0,1,2.28,8.72,9.37,9.37,0,0,0,8.29,6.57,6.46,6.46,0,0,0,2.5-2.82,6.55,6.55,0,0,0,.55-3.43c.45-.33,4.81-3.65,4.54-8.84a8.24,8.24,0,0,0-2.35-5.56,5.47,5.47,0,0,1,3.67,1.81,4.4,4.4,0,0,1,.86,1.8c3.4,1.06,7,2.09,10.79,3.05,4.29,1.07,8.39,1.94,12.28,2.65a123.87,123.87,0,0,1,16.89,33.39Z"/><path class="cls-6" d="M173.29,190.3a27.35,27.35,0,0,1-4.21-1.72c1.45-1,2.51-1.84,2.92-3.19a4.12,4.12,0,0,0,.15-1.51.59.59,0,0,0,0-.13,3.23,3.23,0,0,0-.08-.53C173.51,187,173,190.09,173.29,190.3Z"/><path class="cls-4" d="M200.46,139.18a6.55,6.55,0,0,1-.55,3.43,6.46,6.46,0,0,1-2.5,2.82,9.37,9.37,0,0,1-8.29-6.57,11,11,0,0,0-.23-4.77,11.51,11.51,0,0,0-1.12-2.62,9.91,9.91,0,0,0,4.48,2.47c.67.15,5.82,1.31,8.84-2.27a8.53,8.53,0,0,0,1.56-6.89,8.24,8.24,0,0,1,2.35,5.56C205.27,135.53,200.91,138.85,200.46,139.18Z"/><path class="cls-7" d="M202.65,124.78l-.44.13a3,3,0,0,0,.17-.37Z"/><path class="cls-4" d="M172,185.39c-.41,1.35-1.47,2.23-2.92,3.19l-1,.64a7.66,7.66,0,0,1-3.59,1.48,6.82,6.82,0,0,1-3.76-.7,8.1,8.1,0,0,1-3.36-3.44,65.08,65.08,0,0,1-6.09-16.11c-1.15-7.29-2.48-13.11-3.52-17.2s-2-7.11-1.65-11.49c.19-2.43.48-6.34,2.51-8.86a6.35,6.35,0,0,1,1.79-1.54c3.27-1.87,8.24-.71,8.68.85.13.42-.07.89-.39,1.65-.65,1.58-1.43,1.8-1.71,2.58-.74,2,3.17,3.53,3,6.33-.07,1.72-1.64,3.42-3.4,5.2l-.43.43a5.43,5.43,0,0,0-1.87,2.74,4.51,4.51,0,0,0,.38,2.74c2.26,5.24-.5,1.24,3.53,9.38,1,2.12,1.92,3.9,2.69,5.39.56,1.09,1.07,2,1.54,2.83l0,0v0h0c1,1.35,1.82,2.44,2.44,3.21a24.78,24.78,0,0,1,2.07,1.58h0l.14.1a10.57,10.57,0,0,1,1.14,1l.2.2a11.11,11.11,0,0,1,.87,1,21.5,21.5,0,0,1,1.49,2,11,11,0,0,1,.57,1,7.12,7.12,0,0,1,.48,1.23l.09.34v0h0a3.23,3.23,0,0,1,.08.53.59.59,0,0,1,0,.13A4.12,4.12,0,0,1,172,185.39Z"/><path class="cls-4" d="M250.58,181.63c-.18,1-.45,1-1.56,4,0,0-.54,1.43-1.15,3.33-1.13,3.53-1.57,6.2-2,7.93-1,4.32-2.1,4.07-4.17,9.59-.48,1.28-4.67,12.61-2.92,17.62a4.51,4.51,0,0,1,.21,2.71,5.12,5.12,0,0,1-2.4,2.81,14.12,14.12,0,0,1-3.72,1.78,17.54,17.54,0,0,1-3.58.73c-2.18.21-7.25.71-8.76-1.88a4.08,4.08,0,0,1-.41-1.67,16.87,16.87,0,0,1,.53-6.58,9.48,9.48,0,0,1,2.6-4.26,2.25,2.25,0,0,1,.24-.21l.23-.19c.1-.08.21-.15.3-.21l.22-.14.21-.11a1.38,1.38,0,0,1,.22-.1l.21-.09.6-.25a2.65,2.65,0,0,0,.46-.21h0l.61-.34.2-.13c.23-.15.48-.32.75-.53a17.44,17.44,0,0,0,4.8-5.62,16.94,16.94,0,0,0,2-7.34c.13-1.66.18-3.58.22-5.91.1-4.73-.32-5.06-.1-9.58.23-4.79.35-7.18,1.4-9.52a15.88,15.88,0,0,0,4.75-1.93,16.08,16.08,0,0,0,5.76-6.1c.62.29.54.62,2.58,6.07C250.43,179.3,250.86,180.16,250.58,181.63Z"/><path class="cls-8" d="M226.59,215.86l-.61.34Z"/><path class="cls-9" d="M233.22,337.24c-.51.15-1.13.32-1.84.47a24.08,24.08,0,0,1-10,0,23.62,23.62,0,0,1-5.15-1.75,129.81,129.81,0,0,0,2.7-18.16c1.88-14.94,2.83-22.41,2.29-30.66-.48-7.33-1.3-18.1-7.71-29.6a41.34,41.34,0,0,0-6.83-9.76,189.44,189.44,0,0,0-3.13,29.72c-.4,15.64-.6,23.45,1.72,31.59a52.87,52.87,0,0,1,2.66,17.67,49,49,0,0,1-1.09,8.76l-.55.22a21.26,21.26,0,0,1-16.52-.66h0a16.57,16.57,0,0,1-1.55-.8c-2.22-17.34-4-36-5-55.83-1-19.57-1.16-38.09-.73-55.41A103.56,103.56,0,0,0,220.67,222a16.87,16.87,0,0,0-.53,6.58,4.08,4.08,0,0,0,.41,1.67c1.51,2.59,6.58,2.09,8.76,1.88a17.54,17.54,0,0,0,3.58-.73c1.08,15.58,1.76,32,1.9,49.26C234.94,300.61,234.34,319.52,233.22,337.24Z"/><path class="cls-10" d="M238.86,346.63a5.36,5.36,0,0,1-1.73,3l-12.66-.32a11.46,11.46,0,0,0-4.23-4.06c-1.86-1-3-.86-4.07-2.2a5.93,5.93,0,0,1-1.09-4.06,6.15,6.15,0,0,1,1.11-3,23.62,23.62,0,0,0,5.15,1.75,24.08,24.08,0,0,0,10,0c.56.31,1.72,1.15,4,2.82,1.86,1.34,2.5,1.85,3,2.81A5.46,5.46,0,0,1,238.86,346.63Z"/><path class="cls-10" d="M206,338.33c-.52,1.44-1.39,1.75-1.88,3.13a5.12,5.12,0,0,0-.15,2.66,19.12,19.12,0,0,1-4.07,1.88c-1.51.49-3.25.83-9.22.94-1.57,0-3.71,0-6.26,0a5.3,5.3,0,0,1-2-5.32,9.33,9.33,0,0,0,3.59-.94,6.48,6.48,0,0,0,2.66-2,6,6,0,0,0,1.08-3.57,21.26,21.26,0,0,0,16.52.66A4.55,4.55,0,0,1,206,338.33Z"/><path class="cls-11" d="M156.63,148c1.76-1.78,3.33-3.48,3.4-5.2.13-2.8-3.78-4.35-3-6.33.28-.78,1.06-1,1.71-2.58.32-.76.52-1.23.39-1.65-.44-1.56-5.41-2.72-8.68-.85a6.35,6.35,0,0,0-1.79,1.54l-3.21-15.68,21.19-4,7.27,30.89Z"/><path class="cls-6" d="M151.91,258.67a5.06,5.06,0,0,1-2.1,1.21,4.93,4.93,0,0,1-2.78-.05,11.29,11.29,0,0,0,3.46-7.88A5.92,5.92,0,0,1,151.9,254,6.56,6.56,0,0,1,151.91,258.67Z"/><path class="cls-12" d="M186.1,245.7a10.33,10.33,0,0,1-1.72,5.11,9.93,9.93,0,0,1-3.27,3,7.4,7.4,0,0,1-.85.45c.12,2.57.31,5.26.63,8.08q.33,3.08.77,5.89a23.49,23.49,0,0,1-13,6.89,23.77,23.77,0,0,1-15.81-3.06c-.38-.22-.67-.41-.87-.54a37.2,37.2,0,0,0,.67-13.76,7.28,7.28,0,0,1-.77.87,6.56,6.56,0,0,0,0-4.67,5.92,5.92,0,0,0-1.41-2.05h0a7.78,7.78,0,0,0-3.75-1.85,5.53,5.53,0,0,0-1.33-1.87,5.47,5.47,0,0,0-1.86-1.13l.09-.14c1.44-2.22,2.33-3.42,3.83-4.22.34-.18,1.11-.54,2.1-1h0c.83-.35,1.82-.73,2.85-1.06a4.6,4.6,0,0,0,.58,1,8.42,8.42,0,0,0,3.43,2.39c2.71,1.24,7.65,2.11,10.53-.88a6.28,6.28,0,0,0,1.19-1.74,7.72,7.72,0,0,0,.73-3.43l.6-.35a5.52,5.52,0,0,0,1.4.73,8.7,8.7,0,0,0,3.43.15,8.93,8.93,0,0,1,4.44,1.15,5.44,5.44,0,0,1,1.76,1.94,9.19,9.19,0,0,0,.9,1.13A11,11,0,0,0,186.1,245.7Z"/><path class="cls-12" d="M192,299.92a57.74,57.74,0,0,1-8.53,3.35,56.44,56.44,0,0,1-10.91,2.12l-1.26.11a54.11,54.11,0,0,1-7.08,0,55.91,55.91,0,0,1-9.51-1.38,58.33,58.33,0,0,1-9.16-3,69.86,69.86,0,0,1,7.34-29.07,23.77,23.77,0,0,0,15.81,3.06,23.49,23.49,0,0,0,13-6.89A53.36,53.36,0,0,1,192,299.92Z"/><path class="cls-13" d="M164.21,305.53c-.09,1.36-.19,2.73-.28,4.09a19.5,19.5,0,0,1-5.15,1.43,20.38,20.38,0,0,1-5,0q.42-3.56.92-6.93A55.91,55.91,0,0,0,164.21,305.53Z"/><path class="cls-4" d="M163.93,309.62c-.28,4.13-.54,8.29-.77,12.51q-.43,8.06-.73,15.89a20.59,20.59,0,0,1-5.21.26,15.73,15.73,0,0,1-4.61-.88c.15-5-.33-10.56.13-16.06q.44-5.29,1-10.26a20.38,20.38,0,0,0,5,0A19.5,19.5,0,0,0,163.93,309.62Z"/><path class="cls-13" d="M183.8,306.92a17.17,17.17,0,0,1-5.63,2.88,17.48,17.48,0,0,1-4.69.69c-.29-1.77-.6-3.46-.93-5.1a56.44,56.44,0,0,0,10.91-2.12C183.58,304.47,183.69,305.68,183.8,306.92Z"/><path class="cls-4" d="M184.53,337.08a13.07,13.07,0,0,1-4,1,13.41,13.41,0,0,1-5-.52c0-4.62-.1-9.66-.58-15.07-.37-4.25-.89-8.27-1.51-12a17.48,17.48,0,0,0,4.69-.69,17.17,17.17,0,0,0,5.63-2.88c.42,4.9.71,10.09.84,15.52C184.75,327.55,184.7,332.44,184.53,337.08Z"/><path class="cls-10" d="M192.93,351.63a14.47,14.47,0,0,1-4.9,1.46,14.32,14.32,0,0,1-5.48-.47,19.7,19.7,0,0,0-8.28-6.51,10.64,10.64,0,0,1,1.3-8.55,13.41,13.41,0,0,0,5,.52,13.07,13.07,0,0,0,4-1,15.46,15.46,0,0,0,3.24,6c1.68,1.89,3.31,2.7,4.37,5.05A9.31,9.31,0,0,1,192.93,351.63Z"/><path class="cls-10" d="M163.84,344.8a8.23,8.23,0,0,0-6.16,5.05,13.63,13.63,0,0,1-6.15.94,13.81,13.81,0,0,1-5.47-1.61,4.17,4.17,0,0,1-.41-2.35,4.11,4.11,0,0,1,.88-2.08,11.16,11.16,0,0,0,3.65-2.71,11,11,0,0,0,2.43-4.64,15.73,15.73,0,0,0,4.61.88,20.59,20.59,0,0,0,5.21-.26,9.3,9.3,0,0,1,1.41,6.78Z"/><path class="cls-4" d="M168.15,241.46A6.28,6.28,0,0,1,167,243.2c-2.88,3-7.82,2.12-10.53.88a8.42,8.42,0,0,1-3.43-2.39,4.6,4.6,0,0,1-.58-1,5.56,5.56,0,0,0,1.72-.84,11.08,11.08,0,0,0,4.1,2.56c.83.3,4.72,1.59,7.93-.71a7.59,7.59,0,0,0,2.67-3.54l-.22,0,.26-.17A7.72,7.72,0,0,1,168.15,241.46Z"/><path class="cls-4" d="M196.73,254.09A4.84,4.84,0,0,1,196,257a4.78,4.78,0,0,1-1.41,1.3c-.77.45-2.28.89-6.82-.93a38.1,38.1,0,0,1-6.66-3.48,9.93,9.93,0,0,0,3.27-3,10.19,10.19,0,0,0,1.31-2.79,6.94,6.94,0,0,1,1.87.29,6.76,6.76,0,0,1,1.35.57c.09-1.37.13-2.85.1-4.43s-.12-3.17-.25-4.59a9.8,9.8,0,0,1-2.87-3,28,28,0,0,1-1.41-3.44c-.78-1.89-1-2.42-.78-3,.42-.87,1.8-1,2.19-1a7.18,7.18,0,0,1,6.88,4.22c.81,2-.29,2.78.31,5.94.41,2.13.94,2,2.14,5.16A30,30,0,0,1,196.73,254.09Z"/><path class="cls-3" d="M183.28,241.06c-.76.88-2.33.65-2.77.59a5.44,5.44,0,0,0-1.76-1.94,8.93,8.93,0,0,0-4.44-1.15,8.7,8.7,0,0,1-3.43-.15,5.52,5.52,0,0,1-1.4-.73,3.86,3.86,0,0,0,1.29-1c.3-.33,1.07-1.31,1.36-4.74a20.51,20.51,0,0,0-.42-7.3l-.15-.57a30.86,30.86,0,0,1-8.61-3.39,29.81,29.81,0,0,1-5.36-4c-3.15,1.86-4.19,5.42-4.75,7.35a14.28,14.28,0,0,0-.26,7,13.9,13.9,0,0,0,3.37,6.38h0a6.22,6.22,0,0,1-1.8,2.32,5.56,5.56,0,0,1-1.72.84c-1,.33-2,.71-2.85,1.06h0a6.53,6.53,0,0,1-4.81-3,3.11,3.11,0,0,0,2.87,0,3,3,0,0,0,1.41-1.93,20.72,20.72,0,0,1-5.32-11.16,18.16,18.16,0,0,1,3.39-13.44,5.74,5.74,0,0,1,3.38-2.3,5.14,5.14,0,0,1,3.29.63,17.78,17.78,0,0,1,17.31,2.13,5.21,5.21,0,0,1,3.54.63,5.86,5.86,0,0,1,2.19,6.41,15.2,15.2,0,0,1,2.55,4.23,16,16,0,0,1,.36,10.32,5.28,5.28,0,0,0,3.81,4.12A3,3,0,0,1,183.28,241.06Z"/><path class="cls-4" d="M172.13,232c-.29,3.43-1.06,4.41-1.36,4.74a3.86,3.86,0,0,1-1.29,1l-.6.35-.26.17c-.18.11-.38.26-.61.41-2.33,1.66-2.28,2.41-3.31,2.88l-.08,0a4,4,0,0,1-2.8,0h0a12.61,12.61,0,0,1-3.78-2.12,20.16,20.16,0,0,1-1.54-1.33l-.54-.55a13.9,13.9,0,0,1-3.37-6.38,14.28,14.28,0,0,1,.26-7c.56-1.93,1.6-5.49,4.75-7.35a29.81,29.81,0,0,0,5.36,4,30.86,30.86,0,0,0,8.61,3.39l.15.57A20.51,20.51,0,0,1,172.13,232Z"/><path class="cls-4" d="M120.61,140.45c-.31,1.36-1.53,6.62-5.42,8.61-.22.11-.44.21-.67.3a9.55,9.55,0,0,1-3.6.55,10.1,10.1,0,0,1-4.14-1.09c-.22-.1-.58-.28-1-.52h0a11.21,11.21,0,0,1-4.93-5.19c-.88-2-.79-3.74-.42-6.6a57.51,57.51,0,0,0,11.28-14.35,10,10,0,0,1,1.64.07,8,8,0,0,1,4.3,1.57c2.67,2.13,2.92,5.77,3.21,10.16A19.83,19.83,0,0,1,120.61,140.45Z"/><path class="cls-3" d="M133.43,161a19.83,19.83,0,0,1-3,2.36c-2.16,1.48-3.85,2.64-5.94,2.35-1.72-.24-2.78-1.33-4.53-3.13l-.69-.72a15.29,15.29,0,0,1-4.2-10.69,14.91,14.91,0,0,1,.16-2.11c3.89-2,5.11-7.25,5.42-8.61a19.83,19.83,0,0,0,.24-6.49c-.29-4.39-.54-8-3.21-10.16a8,8,0,0,0-4.3-1.57,10,10,0,0,0-1.64-.07,57.51,57.51,0,0,1-11.28,14.35c-.37,2.86-.46,4.58.42,6.6a11.21,11.21,0,0,0,4.93,5.19h0a9.18,9.18,0,0,0,.19,2.2,7.72,7.72,0,0,0,.35,1.21,11.54,11.54,0,0,0,2,3.21c1.18,1.59,2.73,3.7,3,6.09a6.85,6.85,0,0,1,0,1.7,9.82,9.82,0,0,1-2.31,4.72,10.36,10.36,0,0,1-6,3.44,5.68,5.68,0,0,0-5.15-10c.4-1.58.11-2.37-.24-2.82-1-1.24-2.94-.09-4.93-1.4-1.44-.95-1.19-2-2.66-3a5.71,5.71,0,0,0-3.9-.62.68.68,0,0,1,0-.19,11.77,11.77,0,0,1,1.45-4.11c1.22-2.09,2.5-2.73,3.67-4.07,1.79-2,1.71-3.87,2.59-8.68s1.52-8.3,3.12-11.88c1.36-3,3.15-7,7.35-9.07a13.65,13.65,0,0,1,8.61-.94,5.26,5.26,0,0,1,1.64-.08c3.22.36,5,3.71,5.24,4.22A35.91,35.91,0,0,1,126.25,149a11,11,0,0,1,2.11,3.52A10.81,10.81,0,0,1,129,157c2.78,0,5,.93,5.24,2.19A2.14,2.14,0,0,1,133.43,161Z"/><path class="cls-4" d="M119.23,161.86a7,7,0,0,1-8,.85,6.85,6.85,0,0,0,0-1.7c-.24-2.39-1.79-4.5-3-6.09a11.54,11.54,0,0,1-2-3.21,7.72,7.72,0,0,1-.35-1.21,8.14,8.14,0,0,0,4.81,1.76,8.06,8.06,0,0,0,4.26-1.09,15.29,15.29,0,0,0,4.2,10.69Z"/><path class="cls-5" d="M138.76,188.67a27.54,27.54,0,0,0-5.42,2.82,19.45,19.45,0,0,0,.37,3,20.31,20.31,0,0,0,.75,2.69,28.52,28.52,0,0,1,1.23,3.31c-1.08-.24-2.41,1.5-4.43,1.4-2.28-.1-4.18-2.47-3.86-3.13s3.27.87,4.85-.57c.84-.77,1.12-2.23.62-2.71s-1.4.36-3.12.58c-3.08.38-4.38,0-6.1.25a8.83,8.83,0,0,0-3.33,1.29,13.73,13.73,0,0,0-2.46,2,62.36,62.36,0,0,1-25.23-12,13.12,13.12,0,0,0-6.36-1.56c-2.28.06-2.94.74-5.63,1.25a19.13,19.13,0,0,1-2.56.31c-3.78.22-6.22-.66-6.41-.1q2.86-13.49,5.71-27a9.78,9.78,0,0,1,8.71-7.77l0,.19a5.68,5.68,0,0,1,3.91.62c1.47.93,1.22,2,2.66,3,2,1.31,3.92.17,4.92,1.41.36.44.65,1.24.24,2.82a5.82,5.82,0,0,1,6.65,2.26,5.89,5.89,0,0,1-1.49,7.75,10.36,10.36,0,0,0,6-3.45,9.83,9.83,0,0,0,2.3-4.71,7,7,0,0,0,8-.85l.68.72c1.75,1.8,2.81,2.88,4.53,3.12,2.1.3,3.78-.86,6-2.34a20.88,20.88,0,0,0,3-2.36q2.46,6.2,4.87,12.76,2.53,7,4.76,13.68A28.1,28.1,0,0,0,138.76,188.67Z"/><path class="cls-8" d="M143.06,187.42a16.48,16.48,0,0,1-1.17,2.58,17.34,17.34,0,0,1-1.91,2.75c-.35-1.31-.75-2.67-1.22-4.08A28.1,28.1,0,0,1,143.06,187.42Z"/><path class="cls-8" d="M78.09,191.57a33.37,33.37,0,0,1-6-3.29c-.2-.28-.35-.52-.46-.7.19-.56,2.63.32,6.41.1C78.08,189,78.08,190.27,78.09,191.57Z"/><path class="cls-6" d="M92.94,236.89a225.64,225.64,0,0,1-10,43,60,60,0,0,1-7.64-4.7c3.46-18,6.39-37.07,8.52-57.23q1.06-10.06,1.8-19.79c2.77,1.08,5.79,2.15,9,3.14A225,225,0,0,1,92.94,236.89Z"/><path class="cls-5" d="M143.61,275.78a59,59,0,0,1-11.38,6.43,56.82,56.82,0,0,1-16.06,4.21l-.7.06h0a54.47,54.47,0,0,1-5.64.26,57.45,57.45,0,0,1-16-2.41A63,63,0,0,1,83,279.94h0a225.64,225.64,0,0,0,10-43,225,225,0,0,0,1.78-35.54c2,.6,4,1.18,6.15,1.71a126.39,126.39,0,0,0,13.86,2.66l1.55.92.51.31.62.38.54.33c.27.16.55.33.83.52l.63.39.11.07.65.41.66.42c4.39,2.82,5.48,3.79,7.35,3.65,2.3-.17,3.87-1.87,5.48-3.59a11.48,11.48,0,0,0,2.93-5c.12.79.18,1.5.22,2.14.28,4.68-1,5.38-.7,10.63s1.62,6.28.7,9.39-2.31,2.67-4.07,6.17a18.07,18.07,0,0,0-1.09,12.59c.54,2.07,1.32,5.05,3,5.39,2,.42,4.84-2.9,7.19-8.44a152.17,152.17,0,0,1,1.88,18.77C144,266.4,143.88,271.3,143.61,275.78Z"/><path class="cls-8" d="M119.52,208.64h0l-.11-.07A.41.41,0,0,1,119.52,208.64Z"/><path class="cls-6" d="M78.09,191.57a33.37,33.37,0,0,1-6-3.29c-.41-.34-.5-.56-.46-.7.19-.56,2.63.32,6.41.1C78.08,189,78.08,190.27,78.09,191.57Z"/><path class="cls-4" d="M136.59,204.52a11.48,11.48,0,0,1-2.93,5c-1.61,1.72-3.18,3.42-5.48,3.59-1.87.14-3-.83-7.35-3.65l-.66-.42-.65-.41h0a.41.41,0,0,0-.11-.07l-.63-.39c-.28-.19-.56-.36-.83-.52l-.54-.33-.62-.38-.51-.31-1.55-.92a126.39,126.39,0,0,1-13.86-2.66c-2.13-.53-4.19-1.11-6.15-1.71-3.26-1-6.28-2.06-9-3.14A7.74,7.74,0,0,1,80,195.87a7.54,7.54,0,0,1-2-4.3c0-1.3,0-2.59,0-3.89a19.13,19.13,0,0,0,2.56-.31c2.69-.51,3.35-1.19,5.63-1.25a13.12,13.12,0,0,1,6.36,1.56,62.36,62.36,0,0,0,25.23,12,13.73,13.73,0,0,1,2.46-2,8.83,8.83,0,0,1,3.33-1.29c1.72-.26,3,.13,6.1-.25,1.72-.22,2.66-1,3.12-.58s.22,1.94-.62,2.71c-1.58,1.44-4.5-.14-4.85.57s1.58,3,3.86,3.13c2,.1,3.35-1.64,4.43-1.4a.82.82,0,0,1,.26.1c.66.37.73,1.38.78,2A6.47,6.47,0,0,1,136.59,204.52Z"/><path class="cls-8" d="M119.52,208.64h0l-.11-.07A.41.41,0,0,1,119.52,208.64Z"/><path class="cls-14" d="M143.06,187.42a16.48,16.48,0,0,1-1.17,2.58,17.34,17.34,0,0,1-1.91,2.75c-.35-1.31-.75-2.67-1.22-4.08A28.1,28.1,0,0,1,143.06,187.42Z"/><path class="cls-4" d="M141.27,229.34c0,5.64.35,10.21.62,13-2.35,5.54-5.17,8.86-7.19,8.44-1.73-.34-2.51-3.32-3-5.39a18.07,18.07,0,0,1,1.09-12.59c1.76-3.5,3.19-3.2,4.07-6.17s-.42-4.15-.7-9.39,1-5.95.7-10.63c0-.64-.1-1.35-.22-2.14a6.47,6.47,0,0,0,.14-1.88c0-.65-.12-1.66-.78-2a.82.82,0,0,0-.26-.1,28.52,28.52,0,0,0-1.23-3.31,20.31,20.31,0,0,1-.75-2.69,19.45,19.45,0,0,1-.37-3,27.54,27.54,0,0,1,5.42-2.82c.47,1.41.87,2.77,1.22,4.08A65.21,65.21,0,0,1,142.05,205C142.65,213.47,141.25,217.89,141.27,229.34Z"/><path class="cls-13" d="M109.83,286.74c-.6,1.95-1.24,3.77-1.92,5.48a24,24,0,0,1-10.74,3.27,24.34,24.34,0,0,1-10-1.53,56,56,0,0,1,6.63-9.63A57.45,57.45,0,0,0,109.83,286.74Z"/><path class="cls-4" d="M107.91,292.22a59.5,59.5,0,0,1-9.65,16.5c-4.26,5.11-7.69,7.35-9.7,13.45-.81,2.49-.9,4.09-1.5,9.28a12.34,12.34,0,0,1-5.9.11c-2.12-.5-2.64-1.28-4.4-1.68a98.58,98.58,0,0,0,3.67-10.41,56.24,56.24,0,0,1,4.17-20A55.13,55.13,0,0,1,87.21,294a24.34,24.34,0,0,0,10,1.53A24,24,0,0,0,107.91,292.22Z"/><path class="cls-8" d="M87.06,331.45c-.15,1.31-.34,2.85-.58,4.7-.63,4.79-1.24,8.72-1.67,11.36A8.6,8.6,0,0,1,79,352.3a8.27,8.27,0,0,1-6.25-1.45A9.3,9.3,0,0,1,69,344.91,99.86,99.86,0,0,0,75,333.86c.63-1.35,1.22-2.68,1.75-4,1.76.4,2.28,1.18,4.4,1.68A12.34,12.34,0,0,0,87.06,331.45Z"/><path class="cls-13" d="M132.23,282.21q-.49,3-1.15,6.29A27.47,27.47,0,0,1,112,296a58.64,58.64,0,0,1,3.44-9.48h0l.7-.06A56.82,56.82,0,0,0,132.23,282.21Z"/><path class="cls-4" d="M131.08,288.5c-1.11,5.56-2.56,11.54-4.46,17.83a193.6,193.6,0,0,1-9.8,25.75,19.22,19.22,0,0,1-4.07.62c-2.87.13-3.93-.48-5.51-.45a28,28,0,0,0,2.07-4.24c2.81-7.27,1.55-13.45,1.25-18.24A42.89,42.89,0,0,1,112,296a27.47,27.47,0,0,0,19.05-7.46Z"/><path class="cls-8" d="M122.65,348.76a8.88,8.88,0,0,1-5,3.65c-4.43,1.18-7.94-1.83-8.23-2.08A18,18,0,0,1,106,334.17c.37-.52.8-1.16,1.26-1.92,1.58,0,2.64.58,5.51.45a19.22,19.22,0,0,0,4.07-.62c1.42,3.28,2.8,6.86,4.06,10.74C121.55,344.86,122.13,346.84,122.65,348.76Z"/><path class="cls-10" d="M122.65,348.76a8.88,8.88,0,0,1-5,3.65c-4.43,1.18-7.94-1.83-8.23-2.08A18,18,0,0,1,106,334.17c.37-.52.8-1.16,1.26-1.92,1.58,0,2.64.58,5.51.45a19.22,19.22,0,0,0,4.07-.62c1.42,3.28,2.8,6.86,4.06,10.74C121.55,344.86,122.13,346.84,122.65,348.76Z"/><path class="cls-10" d="M87.06,331.45c-.15,1.31-.34,2.85-.58,4.7-.63,4.79-1.24,8.72-1.67,11.36A8.6,8.6,0,0,1,79,352.3a8.27,8.27,0,0,1-6.25-1.45A9.3,9.3,0,0,1,69,344.91,99.86,99.86,0,0,0,75,333.86c.63-1.35,1.22-2.68,1.75-4,1.76.4,2.28,1.18,4.4,1.68A12.34,12.34,0,0,0,87.06,331.45Z"/><path class="cls-4" d="M150.49,251.94h0a11.29,11.29,0,0,1-3.46,7.88,10.78,10.78,0,0,1-.95.82,21.38,21.38,0,0,1-10-11.81,11.55,11.55,0,0,1-3.68-4.06,9.46,9.46,0,0,1-1.29-5.24c.11-1.49.71-4.06,2-4.3.22,0,.62-.06,1.64.7a12.3,12.3,0,0,1,3.41,4.11c1.46,2.54,1.22,3.06,2.3,4,.35.31,1,.8,2,1.76.48.46.87.86,1.12,1.12l-.09.14a5.47,5.47,0,0,1,1.86,1.13,5.53,5.53,0,0,1,1.33,1.87A7.78,7.78,0,0,1,150.49,251.94Z"/><path class="cls-13" d="M201.09,131.67c-3,3.58-8.17,2.42-8.84,2.27a9.91,9.91,0,0,1-4.48-2.47,9.84,9.84,0,0,0-.93-1.33,12.62,12.62,0,0,0,6.87,2.34c1.44,0,3.82.08,5.31-1.46.47-.49.4-.66,1.68-3.23.89-1.81,1.28-2.42,1.51-2.88l.44-.13A8.53,8.53,0,0,1,201.09,131.67Z"/><path class="cls-15" d="M187.77,131.47a11.31,11.31,0,0,1-1.57-1.81,7.78,7.78,0,0,0,.64.47h0A9.84,9.84,0,0,1,187.77,131.47Z"/><path class="cls-6" d="M235.82,177.23l-.71.15a16,16,0,0,1-3.29.26c-.47-1.34-.95-2.7-1.41-4.06q-.87-2.51-1.72-5c.05,3.21.14,6.48.25,9.79-1.39.17-2.73.29-4,.37a47.09,47.09,0,0,1-.46-7.35c.05-4.41.76-13.38,3-13.68,1.48-.2,3.08,3.3,4.54,6.49A46.56,46.56,0,0,1,235.82,177.23Z"/><path class="cls-6" d="M183.57,179.37c-.09.76-.47,7.21-1.25,20.09-.6,10-.76,18.09-.8,23.41l-2.72-.49a171.19,171.19,0,0,1,1.72-45.91,31.71,31.71,0,0,0-3.27,4.34c.16-7.11-.7-9.19-.17-15.83.42-5.25,1.68-13.1,3.36-13.13.75,0,1.38,1.51,1.8,2.73C185.5,163.92,184.1,174.68,183.57,179.37Z"/><path class="cls-13" d="M168.84,238.17a7.59,7.59,0,0,1-2.67,3.54c-3.21,2.3-7.1,1-7.93.71a11.08,11.08,0,0,1-4.1-2.56,6.22,6.22,0,0,0,1.8-2.32h0l.54.55a20.16,20.16,0,0,0,1.54,1.33,12.61,12.61,0,0,0,3.78,2.12h0a4,4,0,0,0,2.8,0l.08,0c1-.47,1-1.22,3.31-2.88.23-.15.43-.3.61-.41Z"/><path class="cls-6" d="M135.1,190.4a12.48,12.48,0,0,1-1.81-5.4c-.32-3.93,1.66-5.22.86-8.84a10.49,10.49,0,0,0-3.36-5.24c-.54-.45-1.53-1.26-2.19-.94s-.63,1.52-.63,2.19c0,2.26.9,3.45,1.33,4.85,1,3.29-1.28,4.65-1,8.52a11.34,11.34,0,0,0,2.58,6.26l2.47-.31Z"/><path class="cls-6" d="M92.86,187.87a23.18,23.18,0,0,0-.15-7.56,22,22,0,0,1-.78-6.81,15.93,15.93,0,0,1,.39-2.5,9,9,0,0,0,4.22-7.51,89.69,89.69,0,0,1,1.41,15A89.32,89.32,0,0,1,97.18,191Z"/><path class="cls-16" d="M218.89,317.8c-1,7.63-2,13.91-2.7,18.16a22.52,22.52,0,0,1-2.52-1.38c.32-5.54.59-10.32.83-14.25.26-4.7.46-8.18.58-10.3,1-17.92,1.28-21.62.32-28-.65-4.23-1.84-8.82-4.23-18-1.75-6.75-3.36-12.33-4.53-16.27a59.33,59.33,0,0,1,6.83,9.76c6.41,11.5,7.23,22.27,7.71,29.6C221.72,295.39,220.77,302.86,218.89,317.8Z"/><path class="cls-13" d="M115.19,149.06a14.91,14.91,0,0,0-.16,2.11,8.06,8.06,0,0,1-4.26,1.09A8.14,8.14,0,0,1,106,150.5a9.18,9.18,0,0,1-.19-2.2c.43.24.79.42,1,.52a10.1,10.1,0,0,0,4.14,1.09,9.55,9.55,0,0,0,3.6-.55C114.75,149.27,115,149.17,115.19,149.06Z"/></g></g></svg>